HIERARCHY
ROOT Hips
{
	OFFSET 0.000000 88.474243 0.000000
	CHANNELS 6 Xposition Yposition Zposition Zrotation Yrotation Xrotation 
	JOINT Hips_Spine
	{
		OFFSET 0.000000 0.000000 0.000000
		CHANNELS 3 Zrotation Yrotation Xrotation
		JOINT Spine
		{
			OFFSET 0.005100 8.711998 -0.691000
			CHANNELS 3 Zrotation Yrotation Xrotation
			JOINT Spine1
			{
				OFFSET -0.009200 8.660301 -1.275000
				CHANNELS 3 Zrotation Yrotation Xrotation
				JOINT Spine2
				{
					OFFSET 0.006300 9.852501 -1.857000
					CHANNELS 3 Zrotation Yrotation Xrotation
					JOINT Spine2_Neck
					{
						OFFSET 0.000000 0.000000 0.000000
						CHANNELS 3 Zrotation Yrotation Xrotation
						JOINT Neck
						{
							OFFSET 0.016300 11.420799 -0.263300
							CHANNELS 3 Zrotation Yrotation Xrotation
							End Site #name: Head
							{
								OFFSET -0.019200 9.262405 2.362500
							}
						}
					}
					JOINT Spine2_LeftShoulder
					{
						OFFSET 0.000000 0.000000 0.000000
						CHANNELS 3 Zrotation Yrotation Xrotation
						JOINT LeftShoulder
						{
							OFFSET 5.616900 6.732201 -0.345700
							CHANNELS 3 Zrotation Yrotation Xrotation
							JOINT LeftArm
							{
								OFFSET 10.664888 -0.183372 -2.440700
								CHANNELS 3 Zrotation Yrotation Xrotation
								JOINT LeftForeArm
								{
									OFFSET 27.459126 0.000000 0.000000
									CHANNELS 3 Zrotation Yrotation Xrotation
									End Site #name: LeftHand
									{
										OFFSET 21.306858 0.000000 0.000000
									}
								}
							}
						}
					}
					JOINT Spine2_RightShoulder
					{
						OFFSET 0.000000 0.000000 0.000000
						CHANNELS 3 Zrotation Yrotation Xrotation
						JOINT RightShoulder
						{
							OFFSET -5.580300 6.737503 -0.344400
							CHANNELS 3 Zrotation Yrotation Xrotation
							JOINT RightArm
							{
								OFFSET -10.679335 -0.188484 -2.383900
								CHANNELS 3 Zrotation Yrotation Xrotation
								JOINT RightForeArm
								{
									OFFSET -27.503529 0.000000 0.000000
									CHANNELS 3 Zrotation Yrotation Xrotation
									End Site #name: RightHand
									{
										OFFSET -21.306808 0.000000 0.000000
									}
								}
							}
						}
					}
				}
			}
		}
	}
	JOINT Hips_LeftUpLeg
	{
		OFFSET 0.000000 0.000000 0.000000
		CHANNELS 3 Zrotation Yrotation Xrotation
		JOINT LeftUpLeg
		{
			OFFSET 6.857700 -6.739601 0.312100
			CHANNELS 3 Zrotation Yrotation Xrotation
			JOINT LeftLeg
			{
				OFFSET -0.367590 -34.731552 -4.572400
				CHANNELS 3 Zrotation Yrotation Xrotation
				End Site #name: LeftFoot
				{
					OFFSET 0.367590 -34.656704 -6.067400
				}
			}
		}
	}
	JOINT Hips_RightUpLeg
	{
		OFFSET 0.000000 0.000000 0.000000
		CHANNELS 3 Zrotation Yrotation Xrotation
		JOINT RightUpLeg
		{
			OFFSET -6.876100 -6.733299 0.301000
			CHANNELS 3 Zrotation Yrotation Xrotation
			JOINT RightLeg
			{
				OFFSET 0.347353 -34.795158 -4.515900
				CHANNELS 3 Zrotation Yrotation Xrotation
				End Site #name: RightFoot
				{
					OFFSET -0.347353 -34.589367 -6.070300
				}
			}
		}
	}
}
MOTION
Frames: 10
Frame Time: 0.041667
-4.703071 0.021398 -2.190057 -1.889668 16.601726 -7.859250 0.000000 0.000000 0.000000 6.407972 0.953971 -1.940633 4.637363 -0.426823 0.045072 0.000000 0.000000 0.000000 3.998641 -0.335244 0.206487 1.551011 -0.947854 2.054501 4.258160 -0.611285 0.296428 -22.556658 0.458055 -0.697177 -52.410059 17.192626 29.000247 -0.831101 -22.935912 1.498961 3.900176 -0.082196 0.303182 17.527490 11.211702 3.231288 58.586400 -0.912345 13.510662 0.567569 42.556899 -0.045442 -0.000000 -0.000000 -0.000000 2.787948 15.608398 -10.764431 5.856832 11.325286 26.691378 0.000000 -0.000000 0.000000 4.840251 -5.984361 -15.304534 -1.389962 -6.923260 14.512093 
-5.190954 -0.055529 -2.146359 -2.044825 16.682998 -7.582443 0.000000 0.000000 0.000000 6.800313 0.798735 -1.426856 4.743358 -0.424296 0.148679 0.000000 0.000000 0.000000 4.064590 -0.313036 0.278171 1.601764 -0.975088 2.187730 4.337209 -0.590685 0.420171 -22.363670 0.616307 -0.807630 -52.859935 17.356730 28.745983 -0.830163 -23.229299 1.506194 3.980184 -0.057292 0.376830 17.707333 11.342736 3.312174 58.313086 -1.278378 13.662734 0.563296 43.257967 -0.031869 -0.000000 -0.000000 -0.000000 4.212510 15.408063 -11.859926 6.091033 11.590399 28.635933 0.000000 -0.000000 0.000000 5.505313 -5.877036 -15.959560 -1.464986 -7.541830 14.967210 
-5.617368 -0.133696 -2.068978 -2.077324 16.572797 -7.285769 0.000000 0.000000 0.000000 7.090429 0.629958 -0.831386 4.830163 -0.417207 0.245633 0.000000 0.000000 0.000000 4.131495 -0.290435 0.349607 1.643965 -0.997618 2.315231 4.410005 -0.573125 0.531273 -22.174357 0.740083 -0.897003 -53.285083 17.508420 28.421079 -0.829586 -23.527846 1.514608 4.058250 -0.033133 0.483015 17.874942 11.419491 3.387086 58.050531 -1.592793 13.811126 0.564694 43.957821 -0.017406 -0.000000 -0.000000 -0.000000 5.640181 14.758155 -13.065733 6.505509 11.229324 32.125555 0.000000 -0.000000 0.000000 6.023064 -5.685053 -16.527226 -1.477330 -7.947027 15.368617 
-5.960248 -0.215750 -1.969333 -2.000582 16.291551 -6.986719 0.000000 -0.000000 0.000000 7.264876 0.460836 -0.239846 4.910310 -0.416109 0.333985 0.000000 0.000000 0.000000 4.203189 -0.276619 0.415769 1.683574 -1.016765 2.431784 4.487859 -0.558940 0.661280 -21.995056 0.825633 -0.996418 -53.664105 17.646356 28.033698 -0.830841 -23.832353 1.522445 4.137995 -0.019705 0.605357 18.012359 11.474327 3.433780 57.807870 -1.864554 13.914808 0.567399 44.700575 -0.001499 -0.000000 -0.000000 -0.000000 6.997240 13.767811 -14.769649 7.715780 10.297574 39.209453 0.000000 -0.000000 0.000000 6.393800 -5.512886 -16.961439 -1.341716 -8.092820 15.679022 
-6.218013 -0.297614 -1.854797 -1.852552 15.899466 -6.703092 0.000000 -0.000000 0.000000 7.353927 0.273775 0.315302 4.999520 -0.429249 0.411823 0.000000 0.000000 0.000000 4.279620 -0.272119 0.472468 1.719020 -1.029688 2.540754 4.571932 -0.553845 0.778965 -21.835536 0.888342 -1.062133 -54.023334 17.800426 27.584325 -0.832733 -24.137950 1.530293 4.226718 -0.024906 0.706418 18.120620 11.531259 3.478173 57.569702 -2.076410 13.966025 0.573774 45.408986 0.016999 -0.000000 -0.000000 -0.000000 8.315506 12.660301 -16.557062 10.011022 9.403985 46.850823 0.000000 -0.000000 0.000000 6.632694 -5.337388 -17.266199 -1.208881 -8.210661 15.915470 
-6.396095 -0.376397 -1.733206 -1.659439 15.424335 -6.466096 0.000000 -0.000000 0.000000 7.400658 0.109386 0.800454 5.098683 -0.453341 0.482038 0.000000 0.000000 0.000000 4.362657 -0.276959 0.521606 1.729169 -1.043017 2.663215 4.663957 -0.558384 0.888596 -21.700512 0.948979 -1.057080 -54.371903 17.969930 27.079670 -0.834476 -24.411236 1.538197 4.323658 -0.040766 0.782584 18.211221 11.590144 3.521906 57.346597 -2.195093 13.944074 0.583715 46.085507 0.034741 -0.000000 -0.000000 -0.000000 9.607422 11.930619 -17.954165 12.109663 8.110590 54.008659 0.000000 -0.000000 0.000000 6.735239 -5.156800 -17.484570 -1.099531 -8.300973 16.124508 
-6.494019 -0.454400 -1.607109 -1.431797 14.950715 -6.253696 0.000000 -0.000000 0.000000 7.420259 -0.057670 1.179410 5.197837 -0.489965 0.555100 0.000000 0.000000 0.000000 4.447835 -0.292300 0.565019 1.729532 -1.054464 2.789663 4.762578 -0.574234 0.991582 -21.575627 0.978825 -1.047404 -54.695113 18.187049 26.594873 -0.835715 -24.688998 1.548869 4.428629 -0.066065 0.842328 18.283977 11.649329 3.563148 57.150978 -2.222903 13.846213 0.596489 46.701972 0.052551 -0.000000 -0.000000 -0.000000 9.247560 11.755720 -20.135485 13.182568 6.719267 59.690134 0.000000 -0.000000 0.000000 6.708048 -5.002095 -17.660175 -0.995211 -8.362376 16.282988 
-6.512099 -0.530910 -1.474403 -1.172270 14.408392 -6.064490 0.000000 -0.000000 0.000000 7.402369 -0.200717 1.436542 5.289765 -0.534801 0.622171 0.000000 0.000000 0.000000 4.532652 -0.312014 0.610682 1.728983 -1.047245 2.947100 4.861387 -0.599219 1.072952 -21.464012 1.001527 -1.042850 -55.007707 18.420609 26.111105 -0.839458 -24.972240 1.560116 4.530738 -0.096326 0.894657 18.333835 11.704508 3.598153 56.994615 -2.194281 13.709821 0.612845 47.225087 0.070870 -0.000000 -0.000000 -0.000000 8.613012 11.654602 -21.692647 13.584815 5.262233 65.812128 0.000000 -0.000000 0.000000 6.567659 -4.929495 -17.777552 -0.889111 -8.402697 16.382333 
-6.454335 -0.606770 -1.336960 -0.904780 13.817695 -5.896474 0.000000 -0.000000 0.000000 7.345064 -0.320521 1.605825 5.375183 -0.578692 0.672104 0.000000 0.000000 0.000000 4.610095 -0.335989 0.661012 1.733020 -1.036612 3.087311 4.954091 -0.628048 1.132357 -21.377487 0.998559 -1.047542 -55.281209 18.702206 25.624125 -0.841436 -25.221816 1.569799 4.624529 -0.127635 0.932023 18.361665 11.765501 3.629603 56.885068 -2.096736 13.527452 0.631633 47.625672 0.088342 -0.000000 -0.000000 -0.000000 7.994931 11.814941 -22.891644 13.769249 4.088847 70.063849 0.000000 -0.000000 0.000000 6.330301 -4.874988 -17.854671 -0.788374 -8.442606 16.415722 
-6.326634 -0.678527 -1.188859 -0.624181 13.234507 -5.726248 0.000000 -0.000000 0.000000 7.251967 -0.414827 1.717660 5.451153 -0.618152 0.706248 0.000000 0.000000 0.000000 4.678853 -0.360726 0.690962 1.743076 -1.025258 3.209693 5.037695 -0.658074 1.166401 -21.335539 0.969273 -1.059217 -55.507668 19.048476 25.154903 -0.842262 -25.428799 1.579060 4.707805 -0.157628 0.954304 18.361815 11.827821 3.652820 56.824898 -1.951852 13.316645 0.649523 47.898358 0.103004 -0.000000 -0.000000 -0.000000 7.409346 11.897701 -23.774307 13.739902 3.133405 72.348916 0.000000 -0.000000 0.000000 5.988676 -4.819454 -17.870508 -0.682556 -8.482817 16.369647 
